<mxfile host="Electron" agent="Mozilla/5.0 (Windows NT 10.0; Win64; x64) AppleWebKit/537.36 (KHTML, like Gecko) draw.io/27.0.5 Chrome/134.0.6998.205 Electron/35.3.0 Safari/537.36" version="27.0.5">
  <diagram name="Page-1" id="UQfQ47-jhMwPksH4_KgC">
    <mxGraphModel dx="1358" dy="801" grid="1" gridSize="10" guides="1" tooltips="1" connect="1" arrows="1" fold="1" page="1" pageScale="1" pageWidth="850" pageHeight="1100" math="0" shadow="0">
      <root>
        <mxCell id="0" />
        <mxCell id="1" parent="0" />
        <mxCell id="omnwJa0PkKaxr47osV1A-1" value="BEUsuario_391IAU" style="swimlane;fontStyle=1;align=center;verticalAlign=top;childLayout=stackLayout;horizontal=1;startSize=29.473684210526315;horizontalStack=0;resizeParent=1;resizeParentMax=0;resizeLast=0;collapsible=0;marginBottom=0;" vertex="1" parent="1">
          <mxGeometry x="101" y="240" width="120" height="276.4736842105263" as="geometry" />
        </mxCell>
        <mxCell id="omnwJa0PkKaxr47osV1A-2" value="- Apellido: string" style="text;strokeColor=none;fillColor=none;align=left;verticalAlign=top;spacingLeft=4;spacingRight=4;overflow=hidden;rotatable=0;points=[[0,0.5],[1,0.5]];portConstraint=eastwest;" vertex="1" parent="omnwJa0PkKaxr47osV1A-1">
          <mxGeometry y="29.473684210526315" width="120" height="29" as="geometry" />
        </mxCell>
        <mxCell id="omnwJa0PkKaxr47osV1A-3" value="- Contraseña: string" style="text;strokeColor=none;fillColor=none;align=left;verticalAlign=top;spacingLeft=4;spacingRight=4;overflow=hidden;rotatable=0;points=[[0,0.5],[1,0.5]];portConstraint=eastwest;" vertex="1" parent="omnwJa0PkKaxr47osV1A-1">
          <mxGeometry y="58.473684210526315" width="120" height="29" as="geometry" />
        </mxCell>
        <mxCell id="omnwJa0PkKaxr47osV1A-4" value="- DNI: int" style="text;strokeColor=none;fillColor=none;align=left;verticalAlign=top;spacingLeft=4;spacingRight=4;overflow=hidden;rotatable=0;points=[[0,0.5],[1,0.5]];portConstraint=eastwest;" vertex="1" parent="omnwJa0PkKaxr47osV1A-1">
          <mxGeometry y="87.47368421052632" width="120" height="29" as="geometry" />
        </mxCell>
        <mxCell id="omnwJa0PkKaxr47osV1A-5" value="- e-Mail: string" style="text;strokeColor=none;fillColor=none;align=left;verticalAlign=top;spacingLeft=4;spacingRight=4;overflow=hidden;rotatable=0;points=[[0,0.5],[1,0.5]];portConstraint=eastwest;" vertex="1" parent="omnwJa0PkKaxr47osV1A-1">
          <mxGeometry y="116.47368421052632" width="120" height="29" as="geometry" />
        </mxCell>
        <mxCell id="omnwJa0PkKaxr47osV1A-6" value="- Estado: bool" style="text;strokeColor=none;fillColor=none;align=left;verticalAlign=top;spacingLeft=4;spacingRight=4;overflow=hidden;rotatable=0;points=[[0,0.5],[1,0.5]];portConstraint=eastwest;" vertex="1" parent="omnwJa0PkKaxr47osV1A-1">
          <mxGeometry y="145.4736842105263" width="120" height="29" as="geometry" />
        </mxCell>
        <mxCell id="omnwJa0PkKaxr47osV1A-7" value="- Nombre: string" style="text;strokeColor=none;fillColor=none;align=left;verticalAlign=top;spacingLeft=4;spacingRight=4;overflow=hidden;rotatable=0;points=[[0,0.5],[1,0.5]];portConstraint=eastwest;" vertex="1" parent="omnwJa0PkKaxr47osV1A-1">
          <mxGeometry y="174.4736842105263" width="120" height="29" as="geometry" />
        </mxCell>
        <mxCell id="omnwJa0PkKaxr47osV1A-8" value="- Permisos: list" style="text;strokeColor=none;fillColor=none;align=left;verticalAlign=top;spacingLeft=4;spacingRight=4;overflow=hidden;rotatable=0;points=[[0,0.5],[1,0.5]];portConstraint=eastwest;" vertex="1" parent="omnwJa0PkKaxr47osV1A-1">
          <mxGeometry y="203.4736842105263" width="120" height="29" as="geometry" />
        </mxCell>
        <mxCell id="omnwJa0PkKaxr47osV1A-9" value="- Rol: Rol_391IAU" style="text;strokeColor=none;fillColor=none;align=left;verticalAlign=top;spacingLeft=4;spacingRight=4;overflow=hidden;rotatable=0;points=[[0,0.5],[1,0.5]];portConstraint=eastwest;" vertex="1" parent="omnwJa0PkKaxr47osV1A-1">
          <mxGeometry y="232.4736842105263" width="120" height="29" as="geometry" />
        </mxCell>
        <mxCell id="omnwJa0PkKaxr47osV1A-10" style="line;strokeWidth=1;fillColor=none;align=left;verticalAlign=middle;spacingTop=-1;spacingLeft=3;spacingRight=3;rotatable=0;labelPosition=right;points=[];portConstraint=eastwest;strokeColor=inherit;" vertex="1" parent="omnwJa0PkKaxr47osV1A-1">
          <mxGeometry y="261.4736842105263" width="120" height="15" as="geometry" />
        </mxCell>
        <mxCell id="omnwJa0PkKaxr47osV1A-29" style="edgeStyle=orthogonalEdgeStyle;rounded=0;orthogonalLoop=1;jettySize=auto;html=1;dashed=1;endArrow=open;endFill=0;" edge="1" parent="1" source="omnwJa0PkKaxr47osV1A-11" target="omnwJa0PkKaxr47osV1A-1">
          <mxGeometry relative="1" as="geometry">
            <Array as="points">
              <mxPoint x="160" y="40" />
            </Array>
          </mxGeometry>
        </mxCell>
        <mxCell id="omnwJa0PkKaxr47osV1A-30" style="edgeStyle=orthogonalEdgeStyle;rounded=0;orthogonalLoop=1;jettySize=auto;html=1;dashed=1;endArrow=open;endFill=0;" edge="1" parent="1" source="omnwJa0PkKaxr47osV1A-11" target="omnwJa0PkKaxr47osV1A-18">
          <mxGeometry relative="1" as="geometry" />
        </mxCell>
        <mxCell id="omnwJa0PkKaxr47osV1A-31" style="edgeStyle=orthogonalEdgeStyle;rounded=0;orthogonalLoop=1;jettySize=auto;html=1;dashed=1;endArrow=open;endFill=0;" edge="1" parent="1" source="omnwJa0PkKaxr47osV1A-11" target="omnwJa0PkKaxr47osV1A-22">
          <mxGeometry relative="1" as="geometry">
            <Array as="points">
              <mxPoint x="680" y="40" />
            </Array>
          </mxGeometry>
        </mxCell>
        <mxCell id="omnwJa0PkKaxr47osV1A-11" value="BLLUsuario_391IAU" style="swimlane;fontStyle=1;align=center;verticalAlign=top;childLayout=stackLayout;horizontal=1;startSize=32.92307692307692;horizontalStack=0;resizeParent=1;resizeParentMax=0;resizeLast=0;collapsible=0;marginBottom=0;" vertex="1" parent="1">
          <mxGeometry x="221" y="20" width="349" height="205.9230769230769" as="geometry" />
        </mxCell>
        <mxCell id="omnwJa0PkKaxr47osV1A-12" style="line;strokeWidth=1;fillColor=none;align=left;verticalAlign=middle;spacingTop=-1;spacingLeft=3;spacingRight=3;rotatable=0;labelPosition=right;points=[];portConstraint=eastwest;strokeColor=inherit;" vertex="1" parent="omnwJa0PkKaxr47osV1A-11">
          <mxGeometry y="32.92307692307692" width="349" height="8" as="geometry" />
        </mxCell>
        <mxCell id="omnwJa0PkKaxr47osV1A-13" value="+ ActualizarContraseña(int, string) : : void" style="text;strokeColor=none;fillColor=none;align=left;verticalAlign=top;spacingLeft=4;spacingRight=4;overflow=hidden;rotatable=0;points=[[0,0.5],[1,0.5]];portConstraint=eastwest;" vertex="1" parent="omnwJa0PkKaxr47osV1A-11">
          <mxGeometry y="40.92307692307692" width="349" height="33" as="geometry" />
        </mxCell>
        <mxCell id="omnwJa0PkKaxr47osV1A-14" value="+ CambiarContraseña(int, string, string) : : void" style="text;strokeColor=none;fillColor=none;align=left;verticalAlign=top;spacingLeft=4;spacingRight=4;overflow=hidden;rotatable=0;points=[[0,0.5],[1,0.5]];portConstraint=eastwest;" vertex="1" parent="omnwJa0PkKaxr47osV1A-11">
          <mxGeometry y="73.92307692307692" width="349" height="33" as="geometry" />
        </mxCell>
        <mxCell id="omnwJa0PkKaxr47osV1A-15" value="+ ValidarNuevaContraseña(string, string) : : BEUsuario_391IAU" style="text;strokeColor=none;fillColor=none;align=left;verticalAlign=top;spacingLeft=4;spacingRight=4;overflow=hidden;rotatable=0;points=[[0,0.5],[1,0.5]];portConstraint=eastwest;" vertex="1" parent="omnwJa0PkKaxr47osV1A-11">
          <mxGeometry y="106.92307692307692" width="349" height="33" as="geometry" />
        </mxCell>
        <mxCell id="omnwJa0PkKaxr47osV1A-16" value="+ VerificarCoincidencia(string, string) : : void" style="text;strokeColor=none;fillColor=none;align=left;verticalAlign=top;spacingLeft=4;spacingRight=4;overflow=hidden;rotatable=0;points=[[0,0.5],[1,0.5]];portConstraint=eastwest;" vertex="1" parent="omnwJa0PkKaxr47osV1A-11">
          <mxGeometry y="139.9230769230769" width="349" height="33" as="geometry" />
        </mxCell>
        <mxCell id="omnwJa0PkKaxr47osV1A-17" value="+ VerificarContraseña(int, string) : : bool" style="text;strokeColor=none;fillColor=none;align=left;verticalAlign=top;spacingLeft=4;spacingRight=4;overflow=hidden;rotatable=0;points=[[0,0.5],[1,0.5]];portConstraint=eastwest;" vertex="1" parent="omnwJa0PkKaxr47osV1A-11">
          <mxGeometry y="172.9230769230769" width="349" height="33" as="geometry" />
        </mxCell>
        <mxCell id="omnwJa0PkKaxr47osV1A-18" value="DAL_391IAU" style="swimlane;fontStyle=1;align=center;verticalAlign=top;childLayout=stackLayout;horizontal=1;startSize=40.57142857142857;horizontalStack=0;resizeParent=1;resizeParentMax=0;resizeLast=0;collapsible=0;marginBottom=0;" vertex="1" parent="1">
          <mxGeometry x="278" y="312.95" width="235" height="130.57142857142856" as="geometry" />
        </mxCell>
        <mxCell id="omnwJa0PkKaxr47osV1A-19" style="line;strokeWidth=1;fillColor=none;align=left;verticalAlign=middle;spacingTop=-1;spacingLeft=3;spacingRight=3;rotatable=0;labelPosition=right;points=[];portConstraint=eastwest;strokeColor=inherit;" vertex="1" parent="omnwJa0PkKaxr47osV1A-18">
          <mxGeometry y="40.57142857142857" width="235" height="8" as="geometry" />
        </mxCell>
        <mxCell id="omnwJa0PkKaxr47osV1A-20" value="+ ActualizarContraseña(int, string) : : void" style="text;strokeColor=none;fillColor=none;align=left;verticalAlign=top;spacingLeft=4;spacingRight=4;overflow=hidden;rotatable=0;points=[[0,0.5],[1,0.5]];portConstraint=eastwest;" vertex="1" parent="omnwJa0PkKaxr47osV1A-18">
          <mxGeometry y="48.57142857142857" width="235" height="41" as="geometry" />
        </mxCell>
        <mxCell id="omnwJa0PkKaxr47osV1A-21" value="+ TraerUsuario(int) : : BEUsuario_391IAU" style="text;strokeColor=none;fillColor=none;align=left;verticalAlign=top;spacingLeft=4;spacingRight=4;overflow=hidden;rotatable=0;points=[[0,0.5],[1,0.5]];portConstraint=eastwest;" vertex="1" parent="omnwJa0PkKaxr47osV1A-18">
          <mxGeometry y="89.57142857142857" width="235" height="41" as="geometry" />
        </mxCell>
        <mxCell id="omnwJa0PkKaxr47osV1A-22" value="CriptoManager_391IAU" style="swimlane;fontStyle=1;align=center;verticalAlign=top;childLayout=stackLayout;horizontal=1;startSize=47.2;horizontalStack=0;resizeParent=1;resizeParentMax=0;resizeLast=0;collapsible=0;marginBottom=0;" vertex="1" parent="1">
          <mxGeometry x="570" y="327.14" width="221" height="102.2" as="geometry" />
        </mxCell>
        <mxCell id="omnwJa0PkKaxr47osV1A-23" style="line;strokeWidth=1;fillColor=none;align=left;verticalAlign=middle;spacingTop=-1;spacingLeft=3;spacingRight=3;rotatable=0;labelPosition=right;points=[];portConstraint=eastwest;strokeColor=inherit;" vertex="1" parent="omnwJa0PkKaxr47osV1A-22">
          <mxGeometry y="47.2" width="221" height="8" as="geometry" />
        </mxCell>
        <mxCell id="omnwJa0PkKaxr47osV1A-24" value="+ Encripta(string) : : BEUsuario_391IAU" style="text;strokeColor=none;fillColor=none;align=left;verticalAlign=top;spacingLeft=4;spacingRight=4;overflow=hidden;rotatable=0;points=[[0,0.5],[1,0.5]];portConstraint=eastwest;" vertex="1" parent="omnwJa0PkKaxr47osV1A-22">
          <mxGeometry y="55.2" width="221" height="47" as="geometry" />
        </mxCell>
      </root>
    </mxGraphModel>
  </diagram>
</mxfile>
